<svg width="24" height="25" viewBox="0 0 24 25" fill="none" xmlns="http://www.w3.org/2000/svg">
<g clip-path="url(#clip0_7_656)">
<path d="M1 1.922H5L7.68 15.312C7.77145 15.7724 8.02191 16.186 8.38755 16.4803C8.75318 16.7746 9.2107 16.931 9.68 16.922H19.4C19.8693 16.931 20.3268 16.7746 20.6925 16.4803C21.0581 16.186 21.3086 15.7724 21.4 15.312L23 6.922H6M10 21.922C10 22.4743 9.55229 22.922 9 22.922C8.44772 22.922 8 22.4743 8 21.922C8 21.3697 8.44772 20.922 9 20.922C9.55229 20.922 10 21.3697 10 21.922ZM21 21.922C21 22.4743 20.5523 22.922 20 22.922C19.4477 22.922 19 22.4743 19 21.922C19 21.3697 19.4477 20.922 20 20.922C20.5523 20.922 21 21.3697 21 21.922Z" stroke="#757575" stroke-width="2.66667" stroke-linecap="round" stroke-linejoin="round"/>
</g>
<defs>
<clipPath id="clip0_7_656">
<rect width="24" height="24" fill="white" transform="translate(0 0.921997)"/>
</clipPath>
</defs>
</svg>