<svg width="18" height="19" viewBox="0 0 18 19" fill="none" xmlns="http://www.w3.org/2000/svg">
<path d="M16.6 18.844L10.3 12.544C9.8 12.944 9.225 13.2607 8.575 13.494C7.925 13.7273 7.23333 13.844 6.5 13.844C4.68333 13.844 3.14583 13.2148 1.8875 11.9565C0.629167 10.6982 0 9.16066 0 7.34399C0 5.52733 0.629167 3.98983 1.8875 2.73149C3.14583 1.47316 4.68333 0.843994 6.5 0.843994C8.31667 0.843994 9.85417 1.47316 11.1125 2.73149C12.3708 3.98983 13 5.52733 13 7.34399C13 8.07733 12.8833 8.76899 12.65 9.41899C12.4167 10.069 12.1 10.644 11.7 11.144L18 17.444L16.6 18.844ZM6.5 11.844C7.75 11.844 8.8125 11.4065 9.6875 10.5315C10.5625 9.65649 11 8.59399 11 7.34399C11 6.09399 10.5625 5.03149 9.6875 4.15649C8.8125 3.28149 7.75 2.84399 6.5 2.84399C5.25 2.84399 4.1875 3.28149 3.3125 4.15649C2.4375 5.03149 2 6.09399 2 7.34399C2 8.59399 2.4375 9.65649 3.3125 10.5315C4.1875 11.4065 5.25 11.844 6.5 11.844Z" fill="#757575"/>
</svg>